# xmcd CD database file
#
# Track frame offsets:
#	150
#	27464
#	53542
#	67367
#	85895
#
# Disc length: 1632 seconds
#
# Revision: 0
# Processed by: cddbd v1.5.2PL0 Copyright (c) Steve Scherf et al.
# Submitted via: CDex 1.82
#
DISCID=40065e05
DTITLE=Antonin Leymarie  - Damien Sabatier  - Gerald Chevillon  - Remy Poulakis - IMPERIAL ORPHEON
DYEAR=2017
DGENRE=Jazz
TTITLE0=Antonin Leymarie  - Damien Sabatier  - Gerald Chevillon  - Remy Poulakis -  
TTITLE1=Antonin Leymarie  - Damien Sabatier  - Gerald Chevillon  - Remy Poulakis -  
TTITLE2=Antonin Leymarie  - Damien Sabatier  - Gerald Chevillon  - Remy Poulakis -  
TTITLE3=Antonin Leymarie  - Damien Sabatier  - Gerald Chevillon  - Remy Poulakis -  
TTITLE4=Antonin Leymarie  - Damien Sabatier  - Gerald Chevillon  - Remy Poulakis -  
EXTD=YEAR: 2017
EXTT0=
EXTT1=
EXTT2=
EXTT3=
EXTT4=
PLAYORDER=
